<?xml version="1.0" encoding="UTF-8"?>
<!DOCTYPE svg PUBLIC "-//W3C//DTD SVG 1.1//EN" "http://www.w3.org/Graphics/SVG/1.1/DTD/svg11.dtd">
<!-- Creator: CorelDRAW 2018 (64-Bit) -->
<svg xmlns="http://www.w3.org/2000/svg" xml:space="preserve" width="78px" height="200px" version="1.1" style="shape-rendering:geometricPrecision; text-rendering:geometricPrecision; image-rendering:optimizeQuality; fill-rule:evenodd; clip-rule:evenodd"
viewBox="0 0 4.89 12.53"
 xmlns:xlink="http://www.w3.org/1999/xlink">
 <defs>
  <style type="text/css">
   <![CDATA[
    .fil4 {fill:#FEFEFE}
    .fil3 {fill:#F2F2F2}
    .fil10 {fill:#EEEEEF}
    .fil7 {fill:#DCDDDD}
    .fil9 {fill:#C9CACA}
    .fil8 {fill:#B6B6B7}
    .fil1 {fill:#535150}
    .fil6 {fill:#474443}
    .fil2 {fill:#3C3736}
    .fil0 {fill:#332C2B}
    .fil5 {fill:#3C3736;fill-rule:nonzero}
   ]]>
  </style>
 </defs>
 <g id="图层_x0020_1">
  <metadata id="CorelCorpID_0Corel-Layer"/>
  <path class="fil0" d="M0 2.15l4.89 0 0 -1.51c0,-0.35 -0.29,-0.64 -0.64,-0.64l-3.61 0c-0.35,0 -0.64,0.29 -0.64,0.64l0 1.51z"/>
  <path class="fil1" d="M0.78 0l3.47 0c0.35,0 0.64,0.29 0.64,0.64l0 8.41c0,0.35 -0.29,0.64 -0.64,0.64l-3.61 0c-0.35,0 -0.64,-0.29 -0.64,-0.64l0 -4.59 0.18 -0.06 0 -1.41 -0.18 -0.06 0 -2.29c0,-0.27 0.17,-0.51 0.42,-0.6l0 0.37c0,0.1 0.08,0.18 0.18,0.18l0 0c0.1,0 0.18,-0.08 0.18,-0.18l0 -0.41z"/>
  <g id="_1710083261776">
   <polygon class="fil2" points="2.82,3.11 2.82,3.46 3.11,3.46 3.12,3.46 3.13,3.46 3.15,3.46 3.16,3.46 3.17,3.46 3.18,3.46 3.2,3.46 3.21,3.47 3.22,3.47 3.23,3.47 3.24,3.47 3.25,3.47 3.27,3.48 3.28,3.48 3.29,3.48 3.3,3.49 3.31,3.49 3.32,3.49 3.33,3.5 3.34,3.5 3.35,3.51 3.36,3.51 3.37,3.52 3.37,3.52 3.38,3.53 3.39,3.53 3.4,3.54 3.41,3.55 3.42,3.55 3.42,3.56 3.43,3.57 3.44,3.57 3.45,3.58 3.45,3.59 3.46,3.6 3.47,3.6 3.47,3.61 3.48,3.62 3.48,3.63 3.49,3.64 3.5,3.65 3.5,3.66 3.51,3.66 3.51,3.67 3.51,3.68 3.52,3.69 3.52,3.7 3.53,3.71 3.53,3.72 3.53,3.74 3.54,3.75 3.54,3.76 3.54,3.77 3.54,3.78 3.55,3.79 3.55,3.8 3.55,3.81 3.55,3.83 3.55,3.84 3.55,3.85 3.55,3.86 3.56,3.88 3.56,3.89 3.56,3.9 3.56,3.92 3.56,3.93 3.55,3.94 3.55,3.95 3.55,3.96 3.55,3.97 3.55,3.98 3.55,3.99 3.55,4 3.54,4.01 3.54,4.02 3.54,4.03 3.53,4.05 3.53,4.06 3.53,4.07 3.52,4.08 3.52,4.09 3.51,4.09 3.51,4.1 3.5,4.11 3.5,4.12 3.49,4.13 3.49,4.14 3.48,4.15 3.48,4.16 3.47,4.17 3.46,4.18 3.46,4.19 3.45,4.19 3.44,4.2 3.43,4.21 3.42,4.22 3.42,4.23 3.41,4.24 3.4,4.24 3.39,4.25 3.38,4.26 3.37,4.26 3.36,4.27 3.36,4.28 3.35,4.28 3.34,4.29 3.33,4.29 3.32,4.3 3.31,4.3 3.3,4.31 3.29,4.31 3.28,4.32 3.27,4.32 3.26,4.32 3.25,4.33 3.24,4.33 3.23,4.33 3.22,4.34 3.21,4.34 3.2,4.34 3.19,4.34 3.17,4.35 3.16,4.35 3.15,4.35 3.14,4.35 3.13,4.35 3.12,4.35 3.11,4.35 2.66,4.35 2.66,4.19 3.11,4.19 3.11,4.19 3.12,4.19 3.13,4.19 3.14,4.19 3.14,4.18 3.15,4.18 3.16,4.18 3.16,4.18 3.17,4.18 3.18,4.18 3.18,4.18 3.19,4.18 3.2,4.17 3.2,4.17 3.21,4.17 3.22,4.17 3.22,4.16 3.23,4.16 3.23,4.16 3.24,4.15 3.25,4.15 3.25,4.15 3.26,4.14 3.26,4.14 3.27,4.14 3.28,4.13 3.28,4.13 3.29,4.12 3.29,4.12 3.3,4.11 3.3,4.11 3.31,4.1 3.31,4.1 3.32,4.09 3.32,4.09 3.33,4.08 3.33,4.08 3.34,4.07 3.34,4.07 3.34,4.06 3.35,4.05 3.35,4.05 3.36,4.04 3.36,4.04 3.36,4.03 3.36,4.02 3.37,4.02 3.37,4.01 3.37,4.01 3.38,4 3.38,3.99 3.38,3.99 3.38,3.98 3.38,3.97 3.38,3.97 3.39,3.96 3.39,3.95 3.39,3.95 3.39,3.94 3.39,3.93 3.39,3.93 3.39,3.92 3.39,3.91 3.39,3.9 3.39,3.9 3.39,3.89 3.39,3.88 3.39,3.88 3.39,3.87 3.39,3.86 3.39,3.85 3.39,3.85 3.38,3.84 3.38,3.83 3.38,3.83 3.38,3.82 3.38,3.81 3.38,3.81 3.37,3.8 3.37,3.8 3.37,3.79 3.36,3.78 3.36,3.78 3.36,3.77 3.36,3.77 3.35,3.76 3.35,3.75 3.34,3.75 3.34,3.74 3.34,3.74 3.33,3.73 3.33,3.73 3.32,3.72 3.32,3.71 3.31,3.71 3.31,3.7 3.3,3.7 3.3,3.69 3.29,3.69 3.29,3.68 3.28,3.68 3.28,3.68 3.27,3.67 3.26,3.67 3.26,3.66 3.25,3.66 3.25,3.66 3.24,3.65 3.23,3.65 3.23,3.65 3.22,3.64 3.22,3.64 3.21,3.64 3.2,3.64 3.2,3.64 3.19,3.63 3.18,3.63 3.18,3.63 3.17,3.63 3.16,3.63 3.16,3.63 3.15,3.62 3.14,3.62 3.14,3.62 3.13,3.62 3.12,3.62 3.11,3.62 3.11,3.62 2.66,3.62 2.66,2.95 3.53,2.95 3.53,3.11 "/>
   <polygon class="fil2" points="2.34,4.35 2.5,4.35 2.5,2.95 2.34,2.95 1.93,3.5 1.49,2.95 1.33,2.95 1.33,4.35 1.49,4.35 1.49,3.28 1.93,3.88 2.34,3.29 "/>
  </g>
  <polygon class="fil3" points="0.95,1.66 2.44,1.66 3.94,1.66 3.94,0.92 3.26,0.92 3.26,0 3.07,0 3.07,0.26 1.82,0.26 1.82,0 1.63,0 1.63,0.92 0.95,0.92 "/>
  <polygon class="fil4" points="1.21,0 1.63,0 1.63,1.58 1.21,1.58 0.95,1.58 0.95,0.92 1.21,0.92 "/>
  <polygon class="fil4" points="3.68,0 3.26,0 3.26,1.58 3.68,1.58 3.94,1.58 3.94,0.92 3.68,0.92 "/>
  <rect class="fil2" x="1.92" y="6.73" width="1.07" height="0.16" rx="1.21" ry="1.21"/>
  <path class="fil5" d="M3.89 7.78c0,0.04 -0.04,0.08 -0.08,0.08 -0.05,0 -0.09,-0.04 -0.09,-0.08l0 -1.87c0,-0.11 -0.04,-0.21 -0.12,-0.28 -0.07,-0.07 -0.17,-0.12 -0.28,-0.12l-1.75 0c-0.11,0 -0.21,0.05 -0.28,0.12 -0.07,0.07 -0.12,0.17 -0.12,0.28l0 1.87c0,0.04 -0.03,0.08 -0.08,0.08 -0.05,0 -0.09,-0.04 -0.09,-0.08l0 -1.87c0,-0.16 0.07,-0.3 0.17,-0.4 0.1,-0.11 0.25,-0.17 0.4,-0.17l1.75 0c0.16,0 0.3,0.06 0.4,0.17 0.11,0.1 0.17,0.24 0.17,0.4l0 1.87z"/>
  <path class="fil0" d="M0 7.97l0.31 0c0.13,0 0.24,0.11 0.24,0.24l0 0.33c0,0.13 -0.11,0.24 -0.24,0.24l-0.31 0 0 -0.81z"/>
  <path class="fil0" d="M4.89 7.97l-0.31 0c-0.13,0 -0.24,0.11 -0.24,0.24l0 0.33c0,0.13 0.11,0.24 0.24,0.24l0.31 0 0 -0.81z"/>
  <path class="fil0" d="M0 0.95l0.31 0c0.13,0 0.24,0.1 0.24,0.24l0 0.32c0,0.14 -0.11,0.25 -0.24,0.25l-0.31 0 0 -0.81z"/>
  <path class="fil0" d="M4.89 0.95l-0.31 0c-0.13,0 -0.24,0.1 -0.24,0.24l0 0.32c0,0.14 0.11,0.25 0.24,0.25l0.31 0 0 -0.81z"/>
  <rect class="fil6" x="0.92" width="0.29" height="0.27"/>
  <rect class="fil4" x="1.01" y="0.16" width="0.2" height="0.12"/>
  <rect class="fil6" x="3.68" width="0.29" height="0.27"/>
  <rect class="fil4" x="3.68" y="0.16" width="0.2" height="0.12"/>
  <path class="fil1" d="M0 1.02l0.27 0c0.11,0 0.2,0.09 0.2,0.2l0 0.26c0,0.11 -0.09,0.2 -0.2,0.2l-0.27 0 0 -0.66z"/>
  <path class="fil7" d="M0.97 9.69l2.95 0 0 2.72c0,0.07 -0.06,0.12 -0.12,0.12l-2.71 0c-0.07,0 -0.12,-0.05 -0.12,-0.12l0 -2.72z"/>
  <rect class="fil8" x="1.43" y="10.74" width="0.6" height="0.58" rx="0.06" ry="0.06"/>
  <rect class="fil8" x="2.85" y="10.74" width="0.6" height="0.58" rx="0.06" ry="0.06"/>
  <path class="fil6" d="M0.18 3.16l0 0c-0.09,0 -0.16,0.07 -0.16,0.15l0 0.76c0,0.09 0.07,0.16 0.16,0.16l0 0 0 -1.07z"/>
  <path class="fil1" d="M4.89 1.02l-0.27 0c-0.11,0 -0.21,0.09 -0.21,0.2l0 0.26c0,0.11 0.1,0.2 0.21,0.2l0.27 0 0 -0.66z"/>
  <path class="fil1" d="M0 8.04l0.27 0c0.11,0 0.2,0.09 0.2,0.21l0 0.25c0,0.11 -0.09,0.21 -0.2,0.21l-0.27 0 0 -0.67z"/>
  <path class="fil1" d="M4.89 8.04l-0.27 0c-0.11,0 -0.21,0.09 -0.21,0.21l0 0.25c0,0.11 0.1,0.21 0.21,0.21l0.27 0 0 -0.67z"/>
  <rect class="fil4" x="1.8" y="0.7" width="1.3" height="0.4"/>
  <rect class="fil9" x="1.82" y="0.26" width="1.25" height="0.45"/>
  <g id="_1710083269456">
   <polygon class="fil10" points="2.14,0.7 2.26,0.7 2.26,0.41 2.25,0.29 2.16,0.29 2.14,0.41 "/>
   <polygon class="fil10" points="2.63,0.7 2.74,0.7 2.74,0.41 2.73,0.29 2.64,0.29 2.63,0.41 "/>
  </g>
 </g>
</svg>
