<svg version="1.2" baseProfile="tiny-ps" xmlns="http://www.w3.org/2000/svg" viewBox="0 0 51 51" width="51" height="51">
	<title>01-svg</title>
	<style>
		tspan { white-space:pre }
		.shp0 { fill: #fefefe } 
		.shp1 { fill: #ffffff } 
	</style>
	<g id="图层_x0020_1">
	</g>
	<g id="组 1">
		<path id="Layer copy" fill-rule="evenodd" class="shp0" d="M46.8 9C49.11 9 51 10.89 51 13.2L51 46.8C51 49.11 49.11 51 46.8 51L13.2 51C10.89 51 9 49.11 9 46.8L9 33.6C10.47 34.44 12.06 35.09 13.75 35.5L13.75 40.7L46.25 40.7L46.25 16.92L35.97 16.92C35.8 14.05 34.96 11.35 33.6 9L46.8 9ZM36.34 45.03L36.34 48.26C36.34 48.46 36.51 48.63 36.71 48.63L42.31 48.63C42.51 48.63 42.68 48.46 42.68 48.26L42.68 45.03C42.68 44.83 42.51 44.66 42.31 44.66L36.71 44.66C36.51 44.66 36.34 44.83 36.34 45.03ZM26.83 45.03L26.83 48.26C26.83 48.46 26.99 48.63 27.2 48.63L32.8 48.63C33.01 48.63 33.17 48.46 33.17 48.26L33.17 45.03C33.17 44.83 33.01 44.66 32.8 44.66L27.2 44.66C26.99 44.66 26.83 44.83 26.83 45.03ZM17.33 45.03L17.33 48.26C17.33 48.46 17.49 48.63 17.69 48.63L23.3 48.63C23.5 48.63 23.67 48.46 23.67 48.26L23.67 45.03C23.67 44.83 23.5 44.66 23.3 44.66L17.69 44.66C17.49 44.66 17.33 44.83 17.33 45.03Z" />
		<path id="图层 1" fill-rule="evenodd" class="shp0" d="M18.09 35.99C8.14 36.05 0.05 28.04 0 18.09C-0.05 8.14 7.95 0.05 17.9 0C27.85 -0.05 35.94 7.95 35.99 17.9C36.05 27.85 28.04 35.94 18.09 35.99ZM32.56 18.01C32.54 9.99 26.04 3.52 18.02 3.54C10 3.56 3.53 10.06 3.55 18.08C3.57 26.1 10.07 32.57 18.09 32.55C26.11 32.53 32.58 26.03 32.56 18.01Z" />
		<path id="Layer" fill-rule="evenodd" class="shp1" d="M16.47 30.24C16.63 30.4 16.81 30.52 17.02 30.6C17.22 30.69 17.44 30.73 17.66 30.73C17.88 30.73 18.09 30.68 18.3 30.6C18.5 30.51 18.68 30.39 18.84 30.23L29.26 19.76C29.57 19.45 29.75 19.02 29.75 18.58C29.74 18.13 29.57 17.71 29.25 17.4C28.94 17.08 28.51 16.91 28.07 16.91C27.63 16.91 27.2 17.09 26.89 17.4L19.32 25.01L19.27 6.79C19.26 6.36 19.07 5.95 18.76 5.65C18.45 5.35 18.03 5.18 17.59 5.18C17.16 5.19 16.74 5.35 16.43 5.66C16.12 5.96 15.94 6.37 15.93 6.8L15.97 25.02L8.36 17.45C8.04 17.14 7.62 16.96 7.18 16.96C6.73 16.96 6.31 17.14 5.99 17.46C5.68 17.77 5.51 18.2 5.51 18.64C5.51 19.08 5.69 19.51 6 19.82L16.47 30.24L16.47 30.24Z" />
	</g>
</svg>