<?xml version="1.0" standalone="no"?><!DOCTYPE svg PUBLIC "-//W3C//DTD SVG 1.1//EN" "http://www.w3.org/Graphics/SVG/1.1/DTD/svg11.dtd"><svg class="icon" width="36px" height="36.00px" viewBox="0 0 1024 1024" version="1.1" xmlns="http://www.w3.org/2000/svg"><path fill="#515151" d="M123.744 123.744v296.544h296.544V123.744H123.744zM64 64h416v416H64V64z"  /><path fill="#515151" d="M183.456 183.456h179.2v179.2h-179.2zM123.744 603.744v296.544h296.544v-296.544H123.744zM64 544h416v416H64V544z"  /><path fill="#515151" d="M183.456 663.456h179.2v179.2h-179.2z"  /><path fill="#515151" d="M603.744 123.744v296.544h296.544V123.744h-296.544zM544 64h416v416H544V64z"  /><path fill="#515151" d="M663.456 183.456h179.2v179.2h-179.2z"  /><path fill="#515151" d="M627.2 897.6h124.8V960H544v-124.8h83.2v62.4z m41.6-166.4H544V544h416v41.6h-228.8v208H668.8v-62.4z m166.4 93.6H960V960h-124.8v-135.2z m-104-31.2h62.4v62.4h-62.4V793.6z m62.4-166.4h124.8v124.8h-124.8v-124.8z"  /></svg>