<?xml version="1.0" encoding="UTF-8"?>
<!DOCTYPE svg PUBLIC "-//W3C//DTD SVG 1.1//EN" "http://www.w3.org/Graphics/SVG/1.1/DTD/svg11.dtd">
<!-- Creator: CorelDRAW 2018 (64-Bit) -->
<svg xmlns="http://www.w3.org/2000/svg" xml:space="preserve" width="147px" height="200px" version="1.1" style="shape-rendering:geometricPrecision; text-rendering:geometricPrecision; image-rendering:optimizeQuality; fill-rule:evenodd; clip-rule:evenodd"
viewBox="0 0 147 199.576"
 xmlns:xlink="http://www.w3.org/1999/xlink">
 <defs>
  <style type="text/css">
   <![CDATA[
    .fil6 {fill:none}
    .fil4 {fill:#DCDDDD}
    .fil5 {fill:#B6B6B7}
    .fil3 {fill:#5F5D5D}
    .fil2 {fill:#474443}
    .fil7 {fill:#413D3B}
    .fil0 {fill:#332C2B}
    .fil1 {fill:#EDC400}
   ]]>
  </style>
 </defs>
 <g id="图层_x0020_1">
  <metadata id="CorelCorpID_0Corel-Layer"/>
  <g id="_1720265383216">
   <path class="fil0" d="M33.293 199.575l-1.138 0c-1.375,0 -0.982,-1.633 -0.982,-1.633 0.197,-3.341 -1.665,-3.379 -1.665,-3.379l0 -22.274 13.566 0 1.382 9.125 -4.101 -0.922 -4.839 0.277 -2.223 18.806z"/>
   <path class="fil0" d="M112.722 199.575l1.137 0c1.376,0 0.982,-1.633 0.982,-1.633 -0.196,-3.341 1.665,-3.379 1.665,-3.379l0 -22.274 -13.565 0 -1.382 9.125 4.101 -0.922 4.839 0.277 2.223 18.806z"/>
   <path class="fil1" d="M145.931 104.907c-4.762,-4.762 0,-9.29 0,-9.29l-8.493 0c0,0 -4.332,0 -4.645,4.645 0,0 -0.081,4.266 4.645,4.645l8.493 0zm-7.422 -7.487c-1.6,0 -2.897,1.297 -2.897,2.897 0,1.599 1.297,2.897 2.897,2.897 1.599,0 2.897,-1.298 2.897,-2.897 0,-1.6 -1.298,-2.897 -2.897,-2.897z"/>
   <path class="fil1" d="M145.931 126.566c-4.762,-4.762 0,-9.29 0,-9.29l-8.493 0c0,0 -4.332,0 -4.645,4.645 0,0 -0.081,4.266 4.645,4.645l8.493 0zm-7.422 -7.487c-1.6,0 -2.897,1.297 -2.897,2.898 0,1.599 1.297,2.896 2.897,2.896 1.599,0 2.897,-1.297 2.897,-2.896 0,-1.601 -1.298,-2.898 -2.897,-2.898z"/>
   <path class="fil1" d="M145.931 148.225c-4.762,-4.762 0,-9.29 0,-9.29l-8.493 0c0,0 -4.332,0 -4.645,4.645 0,0 -0.081,4.267 4.645,4.645l8.493 0zm-7.422 -7.487c-1.6,0 -2.897,1.297 -2.897,2.898 0,1.599 1.297,2.896 2.897,2.896 1.599,0 2.897,-1.297 2.897,-2.896 0,-1.601 -1.298,-2.898 -2.897,-2.898z"/>
   <path class="fil1" d="M145.931 169.884c-4.762,-4.761 0,-9.29 0,-9.29l-8.493 0c0,0 -4.332,0 -4.645,4.645 0,0 -0.081,4.267 4.645,4.645l8.493 0zm-7.422 -7.487c-1.6,0 -2.897,1.298 -2.897,2.898 0,1.599 1.297,2.897 2.897,2.897 1.599,0 2.897,-1.298 2.897,-2.897 0,-1.6 -1.298,-2.898 -2.897,-2.898z"/>
   <path class="fil1" d="M145.931 191.544c-4.762,-4.762 0,-9.291 0,-9.291l-8.493 0c0,0 -4.332,0 -4.645,4.646 0,0 -0.081,4.266 4.645,4.645l8.493 0zm-7.422 -7.487c-1.6,0 -2.897,1.297 -2.897,2.897 0,1.599 1.297,2.897 2.897,2.897 1.599,0 2.897,-1.298 2.897,-2.897 0,-1.6 -1.298,-2.897 -2.897,-2.897z"/>
   <path class="fil1" d="M145.931 82.994c-4.762,-4.762 0,-9.29 0,-9.29l-8.493 0c0,0 -4.332,0 -4.645,4.645 0,0 -0.081,4.266 4.645,4.645l8.493 0zm-7.422 -7.487c-1.6,0 -2.897,1.297 -2.897,2.898 0,1.599 1.297,2.896 2.897,2.896 1.599,0 2.897,-1.297 2.897,-2.896 0,-1.601 -1.298,-2.898 -2.897,-2.898z"/>
   <path class="fil1" d="M42.293 173.161c-2.712,2.71 0.315,6.076 0.315,6.076l-6.759 0c-3.026,0 -2.556,5.284 -2.556,5.284l0 15.054 3.636 0c0,-1.768 1.434,-3.202 3.202,-3.202 1.769,0 3.203,1.434 3.203,3.202l2.195 0 3.199 0 0 -26.414 -0.594 0 0 5.199c-0.323,0.11 -0.669,0.169 -1.029,0.169 -1.769,0 -3.203,-1.434 -3.203,-3.202 0,-0.835 0.321,-1.595 0.844,-2.166l-2.453 0zm-2.162 8.158c1.769,0 3.203,1.433 3.203,3.202 0,1.769 -1.434,3.203 -3.203,3.203 -1.768,0 -3.202,-1.434 -3.202,-3.203 0,-1.769 1.434,-3.202 3.202,-3.202z"/>
   <path class="fil1" d="M103.722 173.161c2.712,2.71 -0.315,6.076 -0.315,6.076l6.759 0c3.026,0 2.556,5.284 2.556,5.284l0 15.054 -3.636 0c0,-1.768 -1.434,-3.202 -3.202,-3.202 -1.769,0 -3.203,1.434 -3.203,3.202l-2.195 0 -3.199 0 0 -26.414 0.594 0 0 5.199c0.323,0.11 0.669,0.169 1.029,0.169 1.769,0 3.203,-1.434 3.203,-3.202 0,-0.835 -0.321,-1.595 -0.844,-2.166l2.453 0zm2.162 8.158c-1.769,0 -3.203,1.433 -3.203,3.202 0,1.769 1.434,3.203 3.203,3.203 1.768,0 3.202,-1.434 3.202,-3.203 0,-1.769 -1.434,-3.202 -3.202,-3.202z"/>
   <path class="fil2" d="M77.488 1.178l-62.008 0c-0.156,0 -0.291,-0.053 -0.405,-0.16l-0.916 -0.858c-0.114,-0.107 -0.249,-0.16 -0.405,-0.16l-5.031 0c0,0 -5.387,2.078 -6.109,7.376 -0.015,0.114 -0.057,0.209 -0.13,0.298 -0.23,0.279 -0.79,0.98 -1.323,1.826 -0.118,0.188 -0.125,0.409 -0.017,0.604 0.107,0.194 0.297,0.307 0.519,0.307l7.867 0c2.367,0 4.303,1.936 4.303,4.302l0 0c0,2.367 -1.936,4.303 -4.303,4.303l-8.936 0c-0.327,0 -0.594,0.267 -0.594,0.594l0 10.561c0,0.328 0.267,0.594 0.594,0.594l8.936 0c2.367,0 4.303,1.936 4.303,4.303l0 0c0,2.367 -1.936,4.303 -4.303,4.303l-8.936 0c-0.327,0 -0.594,0.266 -0.594,0.594l0 11.896c0,0.328 0.267,0.594 0.594,0.594l8.936 0c2.367,0 4.303,1.937 4.303,4.303l0 0c0,2.367 -1.936,4.303 -4.303,4.303l-8.936 0c-0.327,0 -0.594,0.267 -0.594,0.594l0 11.896c0,0.328 0.267,0.594 0.594,0.594l8.936 0c2.367,0 4.303,1.936 4.303,4.303l0 0c0,2.367 -1.936,4.303 -4.303,4.303l-8.936 0c-0.327,0 -0.594,0.267 -0.594,0.594l0 11.897c0,0.327 0.267,0.594 0.594,0.594l8.936 0c2.367,0 4.303,1.936 4.303,4.302l0 0c0,2.367 -1.936,4.303 -4.303,4.303l-8.936 0c-0.327,0 -0.594,0.267 -0.594,0.594l0 11.897c0,0.327 0.267,0.594 0.594,0.594l8.936 0c2.367,0 4.303,1.936 4.303,4.302l0 0c0,2.367 -1.936,4.303 -4.303,4.303l-8.936 0c-0.327,0 -0.594,0.267 -0.594,0.594l0 11.897c0,0.327 0.267,0.594 0.594,0.594l8.936 0c2.367,0 4.303,1.936 4.303,4.303l0 0c0,2.366 -1.936,4.302 -4.303,4.302l-8.936 0c-0.327,0 -0.594,0.267 -0.594,0.594l0 11.897c0,0.327 0.267,0.594 0.594,0.594l8.936 0c2.367,0 4.303,1.936 4.303,4.303l0 0c0,2.366 -1.936,4.302 -4.303,4.302l-8.936 0c-0.327,0 -0.594,0.267 -0.594,0.594l0 11.897c0,0.327 0.267,0.594 0.594,0.594l8.936 0c2.367,0 4.303,1.936 4.303,4.303l0 0c0,2.366 -1.936,4.302 -4.303,4.302l-8.299 0c-0.194,0 -0.361,0.084 -0.476,0.239 -0.116,0.156 -0.149,0.339 -0.094,0.525 0.931,3.134 3.149,7.263 8.398,7.609 0.013,0.001 0.025,0.001 0.039,0.001l19.816 0c0.328,0 0.594,-0.267 0.594,-0.594l0 -4.418 0 -20.808c0,-0.327 0.267,-0.594 0.594,-0.594l17.438 0c0.327,0 0.594,0.267 0.594,0.594l0 25.226c0,0.327 0.267,0.594 0.594,0.594l48.559 0c0.327,0 0.594,-0.267 0.594,-0.594l0 -25.226c0,-0.327 0.267,-0.594 0.594,-0.594l17.437 0c0.328,0 0.594,0.267 0.594,0.594l0 25.226c0,0.327 0.267,0.594 0.595,0.594l21.254 0c0,0 6.878,-0.46 8.373,-7.659 0.038,-0.181 -0.004,-0.352 -0.12,-0.495 -0.117,-0.144 -0.276,-0.22 -0.461,-0.22l-8.677 0c-2.367,0 -4.303,-1.936 -4.303,-4.302l0 0c0,-2.367 1.936,-4.303 4.303,-4.303l8.936 0c0.327,0 0.594,-0.267 0.594,-0.594l0 -11.897c0,-0.327 -0.267,-0.594 -0.594,-0.594l-8.936 0c-2.367,0 -4.303,-1.936 -4.303,-4.302l0 0c0,-2.367 1.936,-4.303 4.303,-4.303l8.936 0c0.327,0 0.594,-0.267 0.594,-0.594l0 -11.897c0,-0.327 -0.267,-0.594 -0.594,-0.594l-8.936 0c-2.367,0 -4.303,-1.936 -4.303,-4.302l0 0c0,-2.367 1.936,-4.303 4.303,-4.303l8.936 0c0.327,0 0.594,-0.267 0.594,-0.594l0 -11.897c0,-0.327 -0.267,-0.594 -0.594,-0.594l-8.936 0c-2.367,0 -4.303,-1.936 -4.303,-4.303l0 0c0,-2.366 1.936,-4.302 4.303,-4.302l8.936 0c0.327,0 0.594,-0.267 0.594,-0.594l0 -11.897c0,-0.327 -0.267,-0.594 -0.594,-0.594l-8.936 0c-2.367,0 -4.303,-1.936 -4.303,-4.303l0 0c0,-2.366 1.936,-4.302 4.303,-4.302l8.936 0c0.327,0 0.594,-0.267 0.594,-0.594l0 -11.897c0,-0.327 -0.267,-0.594 -0.594,-0.594l-8.936 0c-2.367,0 -4.303,-1.936 -4.303,-4.303l0 0c0,-2.367 1.936,-4.303 4.303,-4.303l8.936 0c0.327,0 0.594,-0.266 0.594,-0.594l0 -65.739c0,-0.154 -0.056,-0.281 -0.153,-0.399l-5.918 -7.082c-0.111,-0.132 -0.265,-0.195 -0.437,-0.196l-5.515 -0.036c-0.132,-0.001 -0.281,0.005 -0.354,0.114l-0.707 1.046c-0.073,0.11 -0.221,0.116 -0.352,0.115l-56.076 -0.196zm-11.397 171.946c0.544,0.574 0.878,1.349 0.878,2.203 0,1.768 -1.434,3.202 -3.202,3.202 -1.768,0 -3.203,-1.434 -3.203,-3.202 0,-0.854 0.335,-1.629 0.879,-2.203l4.648 0zm-4.603 8.195c1.769,0 3.203,1.433 3.203,3.202 0,1.769 -1.434,3.203 -3.203,3.203 -1.769,0 -3.202,-1.434 -3.202,-3.203 0,-1.769 1.433,-3.202 3.202,-3.202zm18.594 -8.195c-0.545,0.574 -0.879,1.349 -0.879,2.203 0,1.768 1.434,3.202 3.202,3.202 1.769,0 3.203,-1.434 3.203,-3.202 0,-0.854 -0.335,-1.629 -0.879,-2.203l-4.647 0zm4.602 8.195c-1.768,0 -3.203,1.433 -3.203,3.202 0,1.769 1.435,3.203 3.203,3.203 1.769,0 3.203,-1.434 3.203,-3.203 0,-1.769 -1.434,-3.202 -3.203,-3.202z"/>
   <path class="fil0" d="M55.775 173.123l13.753 0 0 17.761 -13.753 0 0 -17.761zm10.315 0.001c0.544,0.574 0.879,1.349 0.879,2.203 0,1.768 -1.434,3.202 -3.203,3.202 -1.768,0 -3.202,-1.434 -3.202,-3.202 0,-0.854 0.334,-1.629 0.879,-2.203l4.647 0zm-4.602 8.195c1.768,0 3.203,1.433 3.203,3.202 0,1.769 -1.435,3.203 -3.203,3.203 -1.769,0 -3.203,-1.434 -3.203,-3.203 0,-1.769 1.434,-3.202 3.203,-3.202z"/>
   <path class="fil1" d="M1.663 19.016c4.411,-4.411 0,-8.605 0,-8.605l7.867 0c0,0 4.013,0 4.303,4.302 0,0 0.074,3.952 -4.303,4.303l-7.867 0zm6.875 -6.935c1.482,0 2.684,1.202 2.684,2.684 0,1.481 -1.202,2.683 -2.684,2.683 -1.482,0 -2.683,-1.202 -2.683,-2.683 0,-1.482 1.201,-2.684 2.683,-2.684z"/>
   <path class="fil1" d="M1.663 39.423c4.411,-4.411 0,-8.606 0,-8.606l7.867 0c0,0 4.013,0 4.303,4.303 0,0 0.074,3.952 -4.303,4.303l-7.867 0zm6.875 -6.935c1.482,0 2.684,1.201 2.684,2.684 0,1.481 -1.202,2.683 -2.684,2.683 -1.482,0 -2.683,-1.202 -2.683,-2.683 0,-1.483 1.201,-2.684 2.683,-2.684z"/>
   <path class="fil1" d="M1.663 61.061c4.411,-4.411 0,-8.606 0,-8.606l7.867 0c0,0 4.013,0 4.303,4.303 0,0 0.074,3.952 -4.303,4.303l-7.867 0zm6.875 -6.935c1.482,0 2.684,1.201 2.684,2.684 0,1.481 -1.202,2.683 -2.684,2.683 -1.482,0 -2.683,-1.202 -2.683,-2.683 0,-1.483 1.201,-2.684 2.683,-2.684z"/>
   <path class="fil1" d="M1.663 82.751c4.411,-4.411 0,-8.606 0,-8.606l7.867 0c0,0 4.013,0 4.303,4.303 0,0 0.074,3.952 -4.303,4.303l-7.867 0zm6.875 -6.935c1.482,0 2.684,1.201 2.684,2.684 0,1.481 -1.202,2.683 -2.684,2.683 -1.482,0 -2.683,-1.202 -2.683,-2.683 0,-1.483 1.201,-2.684 2.683,-2.684z"/>
   <path class="fil1" d="M1.663 104.441c4.411,-4.411 0,-8.605 0,-8.605l7.867 0c0,0 4.013,0 4.303,4.302 0,0 0.074,3.952 -4.303,4.303l-7.867 0zm6.875 -6.935c1.482,0 2.684,1.202 2.684,2.684 0,1.481 -1.202,2.683 -2.684,2.683 -1.482,0 -2.683,-1.202 -2.683,-2.683 0,-1.482 1.201,-2.684 2.683,-2.684z"/>
   <path class="fil1" d="M1.663 126.131c4.411,-4.411 0,-8.605 0,-8.605l7.867 0c0,0 4.013,0 4.303,4.302 0,0 0.074,3.952 -4.303,4.303l-7.867 0zm6.875 -6.935c1.482,0 2.684,1.202 2.684,2.684 0,1.481 -1.202,2.683 -2.684,2.683 -1.482,0 -2.683,-1.202 -2.683,-2.683 0,-1.482 1.201,-2.684 2.683,-2.684z"/>
   <path class="fil1" d="M1.663 147.821c4.411,-4.411 0,-8.605 0,-8.605l7.867 0c0,0 4.013,0 4.303,4.303 0,0 0.074,3.952 -4.303,4.302l-7.867 0zm6.875 -6.935c1.482,0 2.684,1.202 2.684,2.684 0,1.481 -1.202,2.683 -2.684,2.683 -1.482,0 -2.683,-1.202 -2.683,-2.683 0,-1.482 1.201,-2.684 2.683,-2.684z"/>
   <path class="fil1" d="M1.663 169.511c4.411,-4.41 0,-8.605 0,-8.605l7.867 0c0,0 4.013,0 4.303,4.303 0,0 0.074,3.952 -4.303,4.302l-7.867 0zm6.875 -6.935c1.482,0 2.684,1.202 2.684,2.684 0,1.481 -1.202,2.683 -2.684,2.683 -1.482,0 -2.683,-1.202 -2.683,-2.683 0,-1.482 1.201,-2.684 2.683,-2.684z"/>
   <path class="fil1" d="M1.663 191.201c4.411,-4.411 0,-8.605 0,-8.605l7.867 0c0,0 4.013,0 4.303,4.303 0,0 0.074,3.952 -4.303,4.302l-7.867 0zm6.875 -6.935c1.482,0 2.684,1.202 2.684,2.684 0,1.481 -1.202,2.683 -2.684,2.683 -1.482,0 -2.683,-1.202 -2.683,-2.683 0,-1.482 1.201,-2.684 2.683,-2.684z"/>
   <path class="fil3" d="M21.189 6.165l118.967 0c0.653,0 1.187,0.533 1.187,1.187l0 49.494c0,0.654 -0.534,1.187 -1.187,1.187l-118.967 0c-0.655,0 -1.187,-0.533 -1.187,-1.187l0 -49.494c0,-0.654 0.532,-1.187 1.187,-1.187z"/>
   <path class="fil4" d="M23.261 9.23l42.952 0 0 1.188 0 4.468 0 20.159 0 7.221c0,0.654 0.533,1.188 1.188,1.188l7.221 0 42.517 0 7.22 0c0.655,0 1.188,-0.534 1.188,-1.188l0 -7.221 0 -3.105c0,-2.312 -1.891,-4.204 -4.204,-4.204l0 0c-2.313,0 -4.204,1.892 -4.204,4.204l0 1.917c0,0.654 -0.534,1.188 -1.189,1.188l-40.14 0c-0.655,0 -1.188,-0.534 -1.188,-1.188l0 -18.971 0 -4.468 0 -1.188 63.461 0 0 45.738 -114.822 0 0 -45.738z"/>
   <path class="fil4" d="M73.264 115.991c9.071,0 16.425,7.353 16.425,16.425 0,9.071 -7.354,16.424 -16.425,16.424 -9.072,0 -16.425,-7.353 -16.425,-16.424 0,-9.072 7.353,-16.425 16.425,-16.425z"/>
   <polygon class="fil5" points="73.264,124.988 76.479,126.845 79.696,128.702 79.696,132.416 79.696,136.129 76.479,137.986 73.264,139.843 70.048,137.986 66.833,136.129 66.833,132.416 66.833,128.702 70.048,126.845 "/>
   <path class="fil0" d="M26.329 129.587l18.469 0c2.053,0 3.733,1.679 3.733,3.732l0 0c0,2.053 -1.68,3.734 -3.733,3.734l-18.469 0c-2.053,0 -3.732,-1.681 -3.732,-3.734l0 0c0,-2.053 1.679,-3.732 3.732,-3.732z"/>
   <path class="fil0" d="M33.972 87.25l18.622 18.622c0,0 3.991,3.437 1.751,6.778 0,0 -2.633,2.868 -7.466,-2.555l-20.159 -20.825c0,0 -9.745,-12.381 1.414,-23.341 0,0 11.003,-11.828 24.285,0l21.081 20.962c0,0 3.988,3.715 1.395,5.993 0,0 -2.948,2.437 -8.213,-2.514l-17.164 -17.624 -15.546 14.504z"/>
   <path class="fil0" d="M90.397 173.123l-13.753 0 0 17.761 13.753 0 0 -17.761zm-10.315 0.001c-0.545,0.574 -0.879,1.349 -0.879,2.203 0,1.768 1.434,3.202 3.202,3.202 1.769,0 3.203,-1.434 3.203,-3.202 0,-0.854 -0.335,-1.629 -0.879,-2.203l-4.647 0zm4.602 8.195c-1.768,0 -3.203,1.433 -3.203,3.202 0,1.769 1.435,3.203 3.203,3.203 1.769,0 3.203,-1.434 3.203,-3.203 0,-1.769 -1.434,-3.202 -3.203,-3.202z"/>
   <path class="fil1" d="M79.517 190.885c-2.888,-2.201 -1.297,-10.727 -1.297,-10.727 -0.982,-0.51 -1.576,-2.515 -1.576,-2.515l0 -4.52 9.788 0.001c0,0 1.18,0.18 1.022,2.702 0,0 -0.818,4.684 2.943,6.178l0 8.88 -10.88 0.001zm0.565 -17.761c-0.545,0.574 -0.879,1.349 -0.879,2.203 0,1.768 1.434,3.202 3.202,3.202 1.769,0 3.203,-1.434 3.203,-3.202 0,-0.854 -0.335,-1.629 -0.879,-2.203l-4.647 0zm4.602 8.195c-1.768,0 -3.203,1.433 -3.203,3.202 0,1.769 1.435,3.203 3.203,3.203 1.769,0 3.203,-1.434 3.203,-3.203 0,-1.769 -1.434,-3.202 -3.203,-3.202z"/>
   <line class="fil6" x1="100.579" y1="199.575" x2="97.593" y2= "199.575" />
   <g>
    <polygon class="fil3" points="112.991,74.687 112.991,82.104 119.058,82.104 119.348,82.107 119.633,82.116 119.914,82.128 120.188,82.143 120.461,82.166 120.73,82.193 120.993,82.223 121.253,82.261 121.507,82.303 121.758,82.347 122.004,82.398 122.246,82.454 122.485,82.514 122.718,82.582 122.949,82.65 123.176,82.727 123.397,82.807 123.616,82.89 123.828,82.979 124.037,83.074 124.24,83.175 124.441,83.279 124.638,83.389 124.83,83.501 125.018,83.62 125.204,83.744 125.383,83.872 125.556,84.005 125.727,84.145 125.894,84.287 126.058,84.435 126.217,84.586 126.369,84.744 126.519,84.907 126.663,85.073 126.803,85.242 126.938,85.417 127.067,85.595 127.192,85.776 127.311,85.963 127.425,86.152 127.536,86.348 127.641,86.547 127.742,86.749 127.838,86.956 127.928,87.17 128.014,87.383 128.095,87.603 128.17,87.828 128.241,88.056 128.307,88.288 128.367,88.525 128.424,88.765 128.475,89.008 128.523,89.258 128.564,89.513 128.6,89.768 128.633,90.032 128.66,90.296 128.681,90.565 128.699,90.838 128.711,91.117 128.717,91.399 128.72,91.687 128.717,91.933 128.708,92.179 128.696,92.422 128.675,92.662 128.651,92.9 128.621,93.134 128.586,93.368 128.544,93.599 128.496,93.828 128.445,94.056 128.385,94.279 128.322,94.501 128.254,94.721 128.179,94.937 128.098,95.154 128.014,95.367 127.922,95.578 127.826,95.785 127.724,95.993 127.616,96.194 127.503,96.396 127.383,96.595 127.258,96.794 127.129,96.986 126.995,97.179 126.854,97.369 126.708,97.559 126.555,97.743 126.397,97.927 126.235,98.107 126.068,98.286 125.891,98.463 125.715,98.635 125.535,98.802 125.353,98.965 125.168,99.119 124.979,99.27 124.791,99.416 124.599,99.555 124.405,99.688 124.208,99.819 124.01,99.94 123.81,100.059 123.607,100.172 123.4,100.278 123.194,100.379 122.982,100.474 122.769,100.566 122.557,100.652 122.339,100.729 122.121,100.803 121.899,100.872 121.675,100.937 121.448,100.993 121.22,101.047 120.99,101.091 120.757,101.132 120.521,101.168 120.281,101.198 120.042,101.224 119.8,101.242 119.555,101.257 119.31,101.263 119.058,101.266 109.4,101.266 109.4,97.76 119.058,97.76 119.217,97.76 119.372,97.754 119.528,97.746 119.68,97.734 119.833,97.719 119.982,97.698 120.132,97.677 120.281,97.651 120.425,97.621 120.571,97.589 120.715,97.55 120.856,97.512 120.996,97.467 121.134,97.42 121.271,97.369 121.409,97.316 121.543,97.259 121.675,97.197 121.806,97.135 121.938,97.067 122.066,96.995 122.195,96.918 122.321,96.841 122.444,96.758 122.569,96.675 122.689,96.586 122.808,96.494 122.928,96.396 123.045,96.299 123.161,96.194 123.275,96.091 123.388,95.981 123.499,95.868 123.607,95.756 123.711,95.64 123.81,95.524 123.905,95.406 123.998,95.287 124.088,95.165 124.175,95.044 124.258,94.919 124.336,94.795 124.411,94.67 124.483,94.54 124.552,94.412 124.617,94.282 124.677,94.148 124.737,94.015 124.791,93.881 124.841,93.745 124.89,93.606 124.934,93.466 124.973,93.327 125.009,93.184 125.042,93.042 125.072,92.897 125.099,92.751 125.123,92.603 125.14,92.455 125.158,92.303 125.17,92.149 125.18,91.998 125.182,91.844 125.186,91.687 125.182,91.529 125.18,91.375 125.17,91.221 125.158,91.07 125.14,90.919 125.123,90.77 125.099,90.622 125.072,90.476 125.042,90.331 125.009,90.189 124.973,90.047 124.934,89.904 124.89,89.765 124.841,89.628 124.791,89.492 124.737,89.356 124.677,89.222 124.617,89.091 124.552,88.961 124.483,88.831 124.411,88.703 124.336,88.578 124.258,88.451 124.175,88.329 124.088,88.208 123.998,88.086 123.905,87.968 123.81,87.849 123.711,87.733 123.607,87.618 123.499,87.505 123.388,87.392 123.275,87.283 123.161,87.176 123.045,87.075 122.928,86.974 122.808,86.879 122.689,86.787 122.569,86.698 122.444,86.612 122.321,86.532 122.195,86.452 122.066,86.378 121.938,86.307 121.806,86.239 121.675,86.173 121.543,86.114 121.409,86.055 121.271,86.001 121.134,85.951 120.996,85.903 120.856,85.862 120.715,85.82 120.571,85.785 120.425,85.752 120.281,85.723 120.132,85.696 119.982,85.672 119.833,85.654 119.68,85.64 119.528,85.625 119.372,85.619 119.217,85.613 119.058,85.61 109.4,85.61 109.4,71.122 128.214,71.122 128.214,74.687 "/>
    <polygon class="fil3" points="102.552,101.325 106.086,101.325 106.086,71.181 102.552,71.181 93.775,83.039 84.41,71.181 80.875,71.181 80.875,101.325 84.41,101.325 84.41,78.368 93.685,91.159 102.552,78.542 "/>
   </g>
   <path class="fil7" d="M40.276 66.927c6.35,0 11.497,5.148 11.497,11.498 0,6.35 -5.147,11.496 -11.497,11.496 -6.349,0 -11.496,-5.146 -11.496,-11.496 0,-6.35 5.147,-11.498 11.496,-11.498z"/>
   <path class="fil1" d="M66.655 190.885c2.888,-2.201 1.296,-10.727 1.296,-10.727 0.983,-0.51 1.577,-2.515 1.577,-2.515l0 -4.52 -9.789 0.001c0,0 -1.179,0.18 -1.022,2.702 0,0 0.818,4.684 -2.942,6.178l0 8.88 10.88 0.001zm-0.565 -17.761c0.544,0.574 0.879,1.349 0.879,2.203 0,1.768 -1.434,3.202 -3.203,3.202 -1.768,0 -3.202,-1.434 -3.202,-3.202 0,-0.854 0.334,-1.629 0.879,-2.203l4.647 0zm-4.602 8.195c1.768,0 3.203,1.433 3.203,3.202 0,1.769 -1.435,3.203 -3.203,3.203 -1.769,0 -3.203,-1.434 -3.203,-3.203 0,-1.769 1.434,-3.202 3.203,-3.202z"/>
  </g>
 </g>
</svg>
