<svg xmlns="http://www.w3.org/2000/svg" viewBox="0 0 1024 1024" width="1024" height="1024">
	<style>
		tspan { white-space:pre }
		.shp0 { fill: #ffffff } 
	</style>
	<path id="Layer" fill-rule="evenodd" class="shp0" d="M960 271L960 754C960 791.95 931.2 823 896 823L128 823C92.8 823 64 791.95 64 754L64 271C64 233.05 92.8 202 128 202L896 202C931.2 202 960 233.05 960 271ZM896 305.5C896 284.8 883.2 271 864 271L160 271C140.8 271 128 284.8 128 305.5L128 719.5C128 740.2 140.8 754 160 754L864 754C883.2 754 896 740.2 896 719.5L896 305.5Z" />
	<path id="BTN " fill-rule="evenodd" class="shp0" d="M230.74 622.95L230.74 396.24L304.26 396.24C320.31 396.24 333.61 397.54 344.16 400.16C354.93 402.55 363.39 406.25 369.54 411.26C375.92 416.27 380.31 422.59 382.73 430.21C385.37 437.83 386.69 446.76 386.69 457C386.69 468.76 384.16 478.67 379.1 486.72C374.27 494.56 365.7 500.34 353.39 504.04L353.39 505.34C367.67 508.61 377.9 514.71 384.05 523.64C390.42 532.35 393.61 543.67 393.61 557.61C393.61 567.85 392.29 577.1 389.66 585.38C387.24 593.44 382.84 600.3 376.47 605.96C370.09 611.4 361.52 615.65 350.75 618.7C340.2 621.53 326.9 622.95 310.86 622.95L230.74 622.95ZM273.93 491.62L292.72 491.62C301.73 491.62 309.43 491.19 315.8 490.32C322.4 489.45 327.78 487.92 331.96 485.74C336.13 483.35 339.21 480.19 341.19 476.27C343.17 472.35 344.16 467.23 344.16 460.92C344.16 454.17 343.17 448.83 341.19 444.91C339.21 440.99 336.13 438.05 331.96 436.09C328 433.91 322.72 432.5 316.13 431.84C309.76 431.19 301.95 430.86 292.72 430.86L273.93 430.86L273.93 491.62ZM273.93 587.99L299.65 587.99C309.54 587.99 317.67 587.56 324.04 586.69C330.64 585.81 335.8 584.18 339.54 581.79C343.5 579.17 346.24 575.8 347.78 571.66C349.32 567.52 350.09 562.19 350.09 555.65C350.09 549.77 349.32 544.76 347.78 540.62C346.24 536.49 343.5 533.22 339.54 530.82C335.8 528.21 330.64 526.36 324.04 525.27C317.67 523.96 309.54 523.31 299.65 523.31L273.93 523.31L273.93 587.99ZM575.61 396.24L575.61 433.8L513.3 433.8L513.3 622.95L470.1 622.95L470.1 433.8L408.12 433.8L408.12 396.24L575.61 396.24ZM608.25 622.95L608.25 396.24L674.52 396.24L757.61 567.09L759.59 567.09L759.59 396.24L801.79 396.24L801.79 622.95L743.1 622.95L652.76 441.32L650.78 441.32L650.78 622.95L608.25 622.95Z" />
</svg>