<svg version="1.2" baseProfile="tiny-ps" xmlns="http://www.w3.org/2000/svg" viewBox="0 0 1403 1024" width="1403" height="1024">
	<title>gauge-svg</title>
	<style>
		tspan { white-space:pre }
		.shp0 { fill: #ffffff } 
	</style>
	<path id="Layer" fill-rule="evenodd" class="shp0" d="M698.74 52.43C1010.2 52.43 1263.75 305.98 1263.75 618.14C1263.75 689.47 1250.33 758.69 1223.49 825.78C1218.55 839.9 1205.13 848.38 1191 848.38C1186.76 848.38 1182.53 846.97 1178.29 845.55C1159.93 838.49 1151.45 818.01 1158.51 799.65C1181.82 741.74 1193.12 681 1193.12 618.14C1193.12 345.53 971.36 123.76 698.74 123.76C426.13 123.76 204.37 345.53 204.37 618C204.36 618.91 204.36 619.81 204.36 620.72C204.36 684.71 217.08 745.72 238.97 798.24C246.03 816.6 237.56 837.08 219.2 844.14C200.83 851.2 180.35 842.73 173.29 824.37C147.16 758.69 133.74 688.77 133.74 617.43C133.74 305.98 387.29 52.43 698.74 52.43ZM758.07 635.09C764.42 645.68 769.37 657.69 769.37 670.4C769.37 709.25 737.59 741.03 698.74 741.03C659.9 741.03 628.12 709.25 628.12 670.4C628.12 632.27 658.49 601.19 696.62 600.48L844.23 327.16C853.41 310.21 875.31 303.86 892.26 313.04C909.21 322.22 915.56 343.41 906.38 361.06L758.07 635.09Z" />
</svg>