<svg version="1.2" baseProfile="tiny-ps" xmlns="http://www.w3.org/2000/svg" viewBox="0 0 1024 1024" width="1024" height="1024">
	<title>joystick</title>
	<style>
		tspan { white-space:pre }
		.shp0 { fill: #ffffff } 
		.shp1 { fill: none;stroke: #ffffff;stroke-width: 59 } 
		.shp2 { fill: none;stroke: #ffffff;stroke-width: 56 } 
		.shp3 { fill: none;stroke: #ffffff;stroke-linecap:round;stroke-linejoin:round;stroke-width: 28 } 
	</style>
	<path id="Layer" class="shp0" d="M468.56 512C468.56 523.52 473.14 534.57 481.28 542.72C489.43 550.86 500.48 555.44 512 555.44C523.52 555.44 534.57 550.86 542.72 542.72C550.86 534.57 555.44 523.52 555.44 512C555.44 500.48 550.86 489.43 542.72 481.28C534.57 473.14 523.52 468.56 512 468.56C500.48 468.56 489.43 473.14 481.28 481.28C473.14 489.43 468.56 500.48 468.56 512L468.56 512Z" />
	<path id="形状 1" class="shp1" d="M512 898.86C298.07 898.86 125.14 725.93 125.14 512C125.14 298.07 298.07 125.14 512 125.14C725.93 125.14 898.86 298.07 898.86 512C898.86 725.93 725.93 898.86 512 898.86Z" />
	<path id="形状 2" class="shp2" d="M-410 235L-409 235L-409 236L-410 236L-410 235Z" />
	<g id="组 1">
		<path id="形状 2 copy" class="shp3" d="M509.73 234.93L513.02 231.64L611.13 329.87L607.85 333.15L509.73 234.93Z" />
		<path id="形状 2 copy 2" class="shp3" d="M511.24 231.39L514.53 234.68L416.44 332.77L413.15 329.48L511.24 231.39Z" />
	</g>
	<g id="组 1 copy">
		<path id="形状 2 copy" class="shp3" d="M513.02 792.9L509.73 789.62L607.85 691.39L611.13 694.67L513.02 792.9Z" />
		<path id="形状 2 copy 2" class="shp3" d="M514.53 789.87L511.24 793.15L413.15 695.06L416.44 691.77L514.53 789.87Z" />
	</g>
	<g id="组 1 copy 2">
		<path id="形状 2 copy" class="shp3" d="M789.07 509.73L792.36 513.02L694.13 611.13L690.85 607.85L789.07 509.73Z" />
		<path id="形状 2 copy 2" class="shp3" d="M792.61 511.24L789.32 514.53L691.23 416.44L694.52 413.15L792.61 511.24Z" />
	</g>
	<g id="组 1 copy 3">
		<path id="形状 2 copy" class="shp3" d="M231.1 513.02L234.38 509.73L332.61 607.85L329.33 611.13L231.1 513.02Z" />
		<path id="形状 2 copy 2" class="shp3" d="M234.13 514.53L230.85 511.24L328.94 413.15L332.23 416.44L234.13 514.53Z" />
	</g>
</svg>