<svg version="1.2" baseProfile="tiny-ps" xmlns="http://www.w3.org/2000/svg" viewBox="0 0 1024 1024" width="1024" height="1024">
	<title>button-svg</title>
	<style>
		tspan { white-space:pre }
		.shp0 { fill: #ffffff } 
	</style>
	<path id="Layer" fill-rule="evenodd" class="shp0" d="M960 284.78L960 738.22C960 773.85 931.2 803 896 803L128 803C92.8 803 64 773.85 64 738.22L64 284.78C64 249.15 92.8 220 128 220L896 220C931.2 220 960 249.15 960 284.78ZM896 317.17C896 297.73 883.2 284.78 864 284.78L160 284.78C140.8 284.78 128 297.73 128 317.17L128 705.83C128 725.27 140.8 738.22 160 738.22L864 738.22C883.2 738.22 896 725.27 896 705.83L896 317.17Z" />
	<path id="形状 1 copy 3" class="shp0" d="M207 482.7L429.3 482.7L429.3 540.65L207 540.65L207 482.7Z" />
	<path id="形状 1" class="shp0" d="M493 252L532 252L532 773L493 773L493 252Z" />
	<path id="形状 1 copy 4" class="shp0" d="M605.75 482.7L828.05 482.7L828.05 540.65L605.75 540.65L605.75 482.7Z" />
	<path id="形状 1 copy 5" class="shp0" d="M688.4 623.3L688.4 401L746.35 401L746.35 623.3L688.4 623.3Z" />
</svg>