<svg version="1.2" baseProfile="tiny-ps" xmlns="http://www.w3.org/2000/svg" viewBox="0 0 1024 1024" width="1024" height="1024">
	<title>chart-svg</title>
	<style>
		tspan { white-space:pre }
		.shp0 { fill: #ffffff } 
	</style>
	<path id="Layer" class="shp0" d="M323.2 422.4C307.2 422.4 291.2 438.4 291.2 454.4L291.2 710.4C291.2 726.4 307.2 742.4 323.2 742.4C342.4 742.4 355.2 726.4 355.2 710.4L355.2 454.4C355.2 435.2 342.4 422.4 323.2 422.4Z" />
	<path id="Layer" class="shp0" d="M483.2 294.4C467.2 294.4 451.2 310.4 451.2 326.4L451.2 710.4C451.2 726.4 467.2 742.4 483.2 742.4C502.4 742.4 515.2 726.4 515.2 710.4L515.2 326.4C515.2 307.2 502.4 294.4 483.2 294.4Z" />
	<path id="Layer" class="shp0" d="M643.2 518.4C627.2 518.4 611.2 534.4 611.2 550.4L611.2 710.4C611.2 726.4 627.2 742.4 643.2 742.4C662.4 742.4 675.2 726.4 675.2 710.4L675.2 550.4C675.2 531.2 662.4 518.4 643.2 518.4Z" />
	<path id="Layer" class="shp0" d="M803.2 358.4C787.2 358.4 771.2 374.4 771.2 390.4L771.2 710.4C771.2 726.4 787.2 742.4 803.2 742.4C822.4 742.4 835.2 726.4 835.2 710.4L835.2 390.4C835.2 371.2 822.4 358.4 803.2 358.4Z" />
	<path id="Layer" class="shp0" d="M867.2 838.4L195.2 838.4L195.2 215.4C195.2 196.2 182.4 183.4 163.2 183.4C144 183.4 131.2 196.2 131.2 215.4L131.2 838.4C131.2 873.6 160 902.4 195.2 902.4L867.2 902.4C886.4 902.4 899.2 889.6 899.2 870.4C899.2 851.2 886.4 838.4 867.2 838.4Z" />
</svg>