<svg xmlns="http://www.w3.org/2000/svg" viewBox="0 0 1024 1024" width="1024" height="1024">
	<style>
		tspan { white-space:pre }
		.shp0 { fill: #ffffff } 
	</style>
	<path id="Layer" class="shp0" d="M795.6 372.8L499.2 654.25L387.2 546.56C380.8 540.46 374.4 537.41 364.8 537.41C355.2 537.41 348.8 540.46 342.4 546.56L184.4 698.98C171.6 711.17 169.6 727.46 182.4 739.65C195.2 751.85 208.4 749.85 221.2 737.65L361.6 610.62L473.6 715.32C480 721.41 486.4 724.46 496 724.46C505.6 724.46 512 721.41 518.4 715.32L834.2 413.52C847 401.33 848 386.04 835.2 373.84C825.6 358.6 808.4 360.6 795.6 372.8Z" />
	<path id="image copy" fill-rule="evenodd" class="shp0" d="M318.89 459.38C270.8 459.38 226.82 415.4 226.82 367.32C226.82 319.24 270.8 275.26 318.89 275.26C366.97 275.26 410.95 319.24 410.95 367.32C410.95 415.4 366.97 459.38 318.89 459.38ZM318.89 316.08C290.01 316.08 267.65 338.47 267.65 367.32C267.65 396.17 290.01 418.56 318.89 418.56C347.76 418.56 370.12 396.17 370.12 367.32C370.12 338.47 347.76 316.08 318.89 316.08Z" />
	<path id="Layer" fill-rule="evenodd" class="shp0" d="M960 216.33L960 813.67C960 860.6 931.2 899 896 899L128 899C92.8 899 64 860.6 64 813.67L64 216.33C64 169.4 92.8 131 128 131L896 131C931.2 131 960 169.4 960 216.33ZM896 241C896 215.4 883.2 198.33 864 198.33L160 198.33C140.8 198.33 128 215.4 128 241L128 795C128 820.6 140.8 837.67 160 837.67L864 837.67C883.2 837.67 896 820.6 896 795L896 241Z" />
</svg>