<svg xmlns="http://www.w3.org/2000/svg" viewBox="0 0 1024 1024" width="1024" height="1024">
	<style>
		tspan { white-space:pre }
		.shp0 { fill: #ffffff } 
	</style>
	<path id="Layer" class="shp0" d="M224 315C204.8 315 192 328.96 192 349.9L192 629.1C192 646.55 204.8 664 224 664C243.2 664 256 650.04 256 629.1L256 349.9C256 332.45 243.2 315 224 315Z" />
	<path id="Layer" fill-rule="evenodd" class="shp0" d="M960 248L960 731C960 768.95 931.2 800 896 800L128 800C92.8 800 64 768.95 64 731L64 248C64 210.05 92.8 179 128 179L896 179C931.2 179 960 210.05 960 248ZM896 282.5C896 261.8 883.2 248 864 248L160 248C140.8 248 128 261.8 128 282.5L128 696.5C128 717.2 140.8 731 160 731L864 731C883.2 731 896 717.2 896 696.5L896 282.5Z" />
</svg>