<svg version="1.2" baseProfile="tiny-ps" xmlns="http://www.w3.org/2000/svg" viewBox="0 0 1024 1024" width="1024" height="1024">
	<title>title</title>
	<style>
		tspan { white-space:pre }
		.shp0 { fill: #ffffff } 
	</style>
	<g id="Title ">
		<path id="T" class="shp0" d="M216.91 660L160.96 660L160.96 426.77L82.34 426.77L82.34 380.28L296.29 380.28L296.29 426.77L216.91 426.77L216.91 660Z" />
		<path id="i" class="shp0" d="M393.05 665L337.86 665L337.86 453.32L393.05 453.32L393.05 665ZM365.83 419.3C356.26 419.3 348.32 416.4 342.02 410.61C335.72 404.81 332.57 397.63 332.57 389.06C332.57 379.99 335.72 372.68 342.02 367.14C348.32 361.59 356.26 358.82 365.83 358.82C375.41 358.82 383.22 361.59 389.27 367.14C395.57 372.68 398.72 379.99 398.72 389.06C398.72 397.63 395.57 404.81 389.27 410.61C383.22 416.4 375.41 419.3 365.83 419.3Z" />
		<path id="t" class="shp0" d="M529.35 665.29C504.15 665.29 486.26 657.98 475.68 643.37C465.09 628.75 459.8 609.6 459.8 585.91L459.8 492.17L429.94 492.17L429.94 450.97L462.45 448.32L468.87 391.62L515.37 391.62L515.37 448.32L567.53 448.32L567.53 492.17L515.37 492.17L515.37 585.91C515.37 609.6 524.94 621.44 544.09 621.44C547.62 621.44 551.28 620.94 555.06 619.93C558.84 618.92 562.11 617.92 564.88 616.91L573.96 657.35C568.41 659.12 561.86 660.88 554.3 662.65C546.99 664.41 538.68 665.29 529.35 665.29Z" />
		<path id="l" class="shp0" d="M663.03 665.29C643.87 665.29 630.39 659.5 622.58 647.9C614.77 636.06 610.86 620.31 610.86 600.65L610.86 358.36L666.05 358.36L666.05 603.3C666.05 609.6 667.31 614.01 669.83 616.53C672.35 618.8 674.87 619.93 677.39 619.93C678.65 619.93 679.78 619.93 680.79 619.93C681.8 619.68 683.19 619.43 684.95 619.18L691.75 660.38C688.48 661.64 684.45 662.77 679.66 663.78C675.12 664.79 669.58 665.29 663.03 665.29Z" />
		<path id="e" fill-rule="evenodd" class="shp0" d="M821.72 665.29C802.06 665.29 784.29 660.88 768.42 652.06C752.54 643.24 739.94 630.64 730.62 614.26C721.29 597.63 716.63 577.72 716.63 554.54C716.63 531.61 721.29 511.82 730.62 495.19C740.19 478.56 752.42 465.71 767.28 456.64C782.4 447.56 798.41 443.03 815.29 443.03C834.69 443.03 850.95 447.44 864.05 456.26C877.16 464.83 886.98 476.8 893.54 492.17C900.34 507.29 903.74 524.68 903.74 544.33C903.74 555.42 902.86 563.86 901.1 569.66L770.69 569.66C772.95 587.05 779.38 600.28 789.96 609.35C800.55 618.17 813.65 622.58 829.28 622.58C838.1 622.58 846.29 621.32 853.85 618.8C861.66 616.28 869.34 612.62 876.9 607.84L895.8 641.86C885.47 648.91 873.88 654.58 861.03 658.87C848.18 663.15 835.07 665.29 821.72 665.29ZM769.93 532.99L856.11 532.99C856.11 518.63 852.84 507.29 846.29 498.97C839.73 490.4 829.65 486.12 816.05 486.12C804.96 486.12 795 490.03 786.18 497.84C777.36 505.65 771.95 517.37 769.93 532.99Z" />
	</g>
</svg>